<svg xmlns="http://www.w3.org/2000/svg" viewBox="0 0 48 48" width="48" height="48">
  <rect width="48" height="48" rx="10" fill="#1e1e2e"/>
  <!-- Git diamond logo -->
  <path d="M41.7,21.3 L26.7,6.3 C25.7,5.3 24.1,5.3 23.1,6.3 L19.6,9.8 L24,14.2 C25.1,13.8 26.4,14.1 27.2,15 C28,15.9 28.2,17.2 27.8,18.3 L32,22.5 C33.1,22.1 34.4,22.3 35.3,23.2 C36.6,24.5 36.6,26.6 35.3,27.9 C34,29.2 31.9,29.2 30.6,27.9 C29.7,27 29.5,25.7 29.9,24.5 L25.9,20.5 L25.9,31.4 C26.3,31.6 26.7,31.9 27,32.3 C28.3,33.6 28.3,35.7 27,37 C25.7,38.3 23.6,38.3 22.3,37 C21,35.7 21,33.6 22.3,32.3 C22.7,31.9 23.2,31.6 23.7,31.4 L23.7,20.3 C23.2,20.1 22.7,19.8 22.3,19.3 C21.4,18.4 21.2,17.1 21.6,16 L17.3,11.7 L6.3,22.7 C5.3,23.7 5.3,25.3 6.3,26.3 L21.3,41.3 C22.3,42.3 23.9,42.3 24.9,41.3 L41.7,24.5 C42.7,23.5 42.7,22.3 41.7,21.3 Z" fill="#F05032"/>
</svg>
