<svg xmlns="http://www.w3.org/2000/svg" viewBox="0 0 48 48" width="48" height="48">
  <rect width="48" height="48" rx="10" fill="#1e1e2e"/>
  <path fill-rule="evenodd" clip-rule="evenodd" d="M24,7 C14.6,7 7,14.6 7,24 C7,31.6 11.9,38 18.8,40.3 C19.7,40.5 20,39.9 20,39.4 L20,36.6 C15.5,37.6 14.4,34.6 14.4,34.6 C13.6,32.6 12.4,32 12.4,32 C10.7,30.9 12.5,30.9 12.5,30.9 C14.4,31 15.4,32.8 15.4,32.8 C17.1,35.5 19.9,34.7 21,34.2 C21.2,33 21.7,32.2 22.2,31.8 C17.9,31.3 13.4,29.6 13.4,22.4 C13.4,20.4 14.1,18.8 15.4,17.5 C15.2,17 14.5,15.2 15.6,12.7 C15.6,12.7 17.2,12.2 20,14.6 C21.4,14.2 22.7,14 24,14 C25.3,14 26.6,14.2 28,14.6 C30.8,12.2 32.4,12.7 32.4,12.7 C33.5,15.2 32.8,17 32.6,17.5 C33.9,18.8 34.6,20.4 34.6,22.4 C34.6,29.7 30.1,31.3 25.8,31.8 C26.5,32.4 27,33.6 27,35.5 L27,39.4 C27,39.9 27.3,40.5 28.2,40.3 C35.1,38 40,31.6 40,24 C40,14.6 32.4,7 24,7 Z" fill="#f0f6fc"/>
</svg>
